<?xml version="1.0" standalone="no"?>
<svg height="600" width="600" viewBox="0 0 600 600" xmlns="http://www.w3.org/2000/svg">
<title>Mars or male symbol (blue pseudo-3D version)</title>
<g transform="translate(-191,897) scale(0.9,-0.9)" stroke="#000000" stroke-linejoin="round" fill="rgb(102,173,255)" stroke-width="4">
<g fill="rgb(0,127,204)">
<path d="M308,466c33-34,79-53,127-53c99,0,180,81,180,180c0,48-19,94-53,127
l263,264l40-40v-215h-60l-40,40v32l-122-122c27-37,42-81,42-126
c0-116-94-210-210-210h0c-56,0-109,22-148,62l-40,40l21,21Z"/>
<path d="M650,884h113l-40,40h-113l40-40Z"/>
<path fill="none" d="M865,729l-40,40M643,679l-39,40"/>
<path d="M581,659c-28,28-66,44-106,44c-83,0-150-67-150-150c0-40,16-78,44-106
l-61,19c-34,33-53,79-53,127c0,99,81,180,180,180c48,0,94-19,127-53l19-61Z"/></g>
<path d="M825,769v215h-215v-60h113l-163-163c-36,27-80,42-125,42
c-116,0-210-94-210-210c0-116,94-210,210-210c116,0,210,94,210,210
c0,45-15,89-42,126l162,162v-112h60Z
M585,593c0-83-67-150-150-150c-83,0-150,67-150,150c0,83,67,150,150,150
c83,0,150-67,150-150Z"/></g></svg>
